<?xml version="1.0" standalone="no"?>
<!DOCTYPE svg PUBLIC "-//W3C//DTD SVG 20010904//EN"
 "http://www.w3.org/TR/2001/REC-SVG-20010904/DTD/svg10.dtd">
<svg version="1.0" xmlns="http://www.w3.org/2000/svg"
 width="1048.000000pt" height="556.000000pt" viewBox="0 0 1048.000000 556.000000"
 preserveAspectRatio="xMidYMid meet">
<metadata>
Created by potrace 1.16, written by Peter Selinger 2001-2019
</metadata>
<g transform="translate(0.000000,556.000000) scale(0.100000,-0.100000)"
fill="#000000" stroke="none">
<path d="M2991 4846 c-11 -13 -13 -44 -9 -134 7 -149 30 -217 98 -283 71 -69
138 -92 273 -93 59 -1 107 -5 107 -9 0 -5 -24 -36 -54 -68 -55 -61 -140 -218
-170 -314 -18 -59 -56 -255 -56 -291 0 -13 -3 -24 -7 -24 -5 -1 -46 -2 -93 -4
-120 -4 -180 -26 -244 -90 -81 -81 -111 -165 -123 -337 -10 -162 23 -282 100
-366 l41 -44 -14 -47 c-32 -114 -22 -147 58 -174 143 -49 187 -37 238 68 l36
74 43 0 c63 0 161 -34 240 -84 118 -74 114 -69 108 -179 -7 -111 -9 -108 102
-126 105 -18 101 -10 86 -148 -33 -323 -41 -414 -43 -508 -3 -88 0 -106 15
-123 17 -18 124 -60 217 -84 49 -13 432 -28 451 -17 16 8 25 57 46 254 5 39
13 70 18 70 6 0 20 -38 31 -85 27 -104 83 -289 95 -313 6 -9 20 -23 32 -31 37
-24 289 -58 475 -63 195 -6 275 4 335 43 61 40 74 83 82 267 l7 157 72 0 c138
0 464 41 531 66 17 7 31 -19 38 -73 9 -73 48 -189 67 -201 17 -10 162 -36 245
-44 26 -3 34 -12 60 -63 24 -49 38 -64 75 -82 54 -28 98 -29 374 -8 304 23
344 32 381 88 16 24 65 247 85 382 6 44 18 123 25 175 8 52 19 130 25 173 5
43 17 91 25 107 41 79 75 304 75 495 0 126 -20 314 -44 428 -17 77 -76 254
-112 335 -29 66 -23 76 47 91 132 29 220 -6 293 -112 55 -82 74 -165 91 -397
20 -278 42 -366 117 -473 18 -25 19 -33 9 -72 -26 -104 3 -202 83 -280 56 -56
152 -115 184 -115 32 0 44 31 26 66 -13 24 -15 54 -10 164 5 115 3 142 -12
180 -22 57 -64 80 -144 80 l-57 0 -35 63 c-51 92 -65 158 -81 397 -21 302 -55
403 -169 508 -87 79 -225 107 -337 68 -50 -18 -79 -20 -79 -7 0 20 -107 170
-162 227 -95 99 -241 188 -393 239 -88 29 -266 63 -415 80 -80 8 -194 22 -255
30 -217 28 -360 38 -485 31 -69 -3 -138 -9 -153 -12 -27 -6 -28 -6 -21 33 10
65 2 67 -242 71 -167 3 -216 7 -225 18 -18 22 -111 17 -196 -11 -42 -14 -77
-24 -79 -22 -2 2 -8 53 -13 113 -11 134 -27 172 -91 223 -81 64 -166 68 -214
10 -33 -39 -40 -68 -33 -131 l6 -51 -57 7 c-222 25 -248 27 -341 16 -116 -13
-225 -41 -291 -75 -57 -29 -73 -25 -91 18 -17 41 -124 148 -191 191 -29 18
-110 63 -180 100 -141 74 -220 94 -247 62z m218 -147 c149 -73 194 -103 267
-175 73 -73 72 -89 -7 -98 -206 -21 -318 13 -369 113 -19 39 -45 194 -35 211
9 15 7 15 144 -51z m1369 -46 c24 -20 50 -50 57 -67 17 -44 28 -221 15 -247
-11 -19 -12 -19 -53 12 -23 17 -53 44 -67 60 -14 17 -35 42 -48 56 -42 46 -51
94 -31 166 10 36 32 55 68 56 8 1 34 -15 59 -36z m-233 -213 c89 -22 91 -23
149 -87 65 -70 67 -90 12 -104 -58 -16 -106 -88 -106 -159 0 -33 7 -48 33 -74
62 -64 160 -61 231 7 24 23 53 57 63 76 26 48 44 57 81 42 23 -10 37 -28 61
-82 41 -92 50 -137 51 -245 0 -56 4 -94 12 -102 19 -19 46 -14 64 13 14 22 16
44 11 133 -3 59 -10 120 -16 136 -15 39 -4 48 44 35 53 -15 153 -5 207 21 23
11 66 41 93 67 65 60 114 72 325 80 174 5 248 0 580 -41 406 -51 511 -75 675
-156 178 -87 286 -200 386 -402 28 -56 55 -111 60 -121 22 -41 80 -215 98
-291 27 -113 41 -251 41 -413 0 -216 -20 -363 -65 -478 -13 -33 -31 -116 -40
-185 -9 -69 -27 -183 -40 -255 -13 -71 -29 -170 -36 -220 -24 -185 -41 -194
-412 -216 -267 -16 -293 -7 -323 102 -36 134 -57 359 -58 609 l-1 245 -31 3
c-18 2 -36 -3 -43 -11 -8 -10 -12 -80 -14 -223 l-3 -208 -94 -13 c-52 -8 -122
-15 -155 -17 -33 -2 -87 -11 -120 -19 -33 -8 -90 -20 -126 -26 -83 -14 -394
-32 -414 -25 -10 4 -15 21 -15 53 0 59 -31 128 -64 143 -22 9 -29 8 -46 -7
-25 -23 -25 -39 1 -75 21 -28 22 -35 17 -257 -4 -145 -10 -237 -17 -253 -31
-66 -145 -97 -316 -85 -157 11 -387 44 -409 59 -13 8 -30 40 -43 82 -57 185
-84 277 -103 359 -29 119 -30 122 -87 127 -59 6 -191 66 -258 118 -27 22 -66
62 -85 90 -37 53 -71 70 -95 50 -26 -22 -16 -53 34 -115 77 -95 164 -155 299
-208 47 -19 46 -17 32 -84 -5 -26 -16 -103 -24 -171 -8 -68 -16 -126 -19 -129
-3 -2 -73 -4 -154 -4 -150 2 -248 17 -334 54 -48 20 -51 38 -33 237 37 418 42
450 73 486 19 21 33 53 41 91 7 32 14 63 15 70 2 6 25 15 52 18 67 10 167 62
222 115 68 66 191 217 191 234 0 18 -27 46 -45 46 -7 0 -47 -39 -87 -87 -115
-138 -119 -142 -167 -170 -102 -60 -226 -77 -349 -48 -71 17 -108 34 -239 112
-160 95 -217 114 -367 124 -156 10 -220 27 -265 71 -52 51 -72 106 -78 217
-10 170 19 302 81 369 46 51 101 67 231 67 66 0 125 4 131 8 7 4 15 37 18 74
35 348 142 571 334 702 111 75 225 120 357 142 88 14 291 3 390 -21z m622
-112 c33 -30 31 -82 -3 -104 -41 -27 -111 -28 -174 -2 -77 32 -75 53 10 95 79
39 134 42 167 11z m379 -43 c4 -8 -14 -37 -42 -69 -79 -92 -183 -128 -268 -92
-48 20 -50 30 -15 67 20 21 33 48 37 71 l5 38 139 0 c112 0 140 -3 144 -15z
m-672 -71 c16 -6 23 -54 8 -54 -4 0 -14 -16 -20 -35 -25 -69 -94 -100 -167
-77 -30 10 -32 65 -3 108 13 18 25 34 28 34 3 1 28 7 55 15 57 16 77 17 99 9z
m3507 -1676 c13 -23 8 -222 -5 -235 -4 -4 -25 11 -46 34 -69 78 -81 205 -20
225 25 8 60 -4 71 -24z m-4406 -52 c54 -11 60 -15 63 -38 8 -65 -26 -79 -130
-56 -70 16 -81 33 -58 93 9 23 14 26 38 20 15 -5 54 -13 87 -19z m2686 -756
c27 -165 31 -154 -48 -146 -38 4 -84 11 -104 16 -34 9 -38 15 -52 68 -9 31
-19 76 -23 98 -6 41 -5 42 27 52 50 16 79 20 134 18 l49 -1 17 -105z"/>
<path d="M1740 2152 c-40 -20 -84 -89 -102 -163 -16 -65 -38 -82 -70 -52 -29
27 -139 78 -201 94 -64 16 -102 0 -118 -48 -27 -84 17 -172 107 -209 64 -27
67 -32 37 -68 -77 -92 -85 -205 -16 -247 42 -26 93 -19 129 16 14 14 33 29 44
35 10 5 31 32 46 59 41 72 58 79 103 43 49 -39 124 -62 207 -64 88 -2 140 19
182 74 27 35 31 48 28 85 -6 78 -76 122 -198 126 -48 1 -81 7 -93 17 -16 13
-16 15 7 35 13 11 36 39 51 62 46 73 30 158 -40 204 -35 23 -59 24 -103 1z
m82 -99 c9 -74 -57 -172 -116 -173 -23 0 -27 4 -23 18 4 9 11 37 18 62 25 95
43 120 91 120 22 0 27 -5 30 -27z m-411 -99 c21 -4 44 -13 50 -20 6 -8 22 -14
35 -14 25 0 44 -26 44 -59 0 -25 -66 -46 -119 -37 -43 7 -105 55 -109 85 -4
27 26 64 46 56 7 -3 31 -8 53 -11z m601 -210 c32 -16 52 -49 42 -67 -27 -44
-94 -66 -181 -58 -59 5 -80 13 -127 44 -31 20 -56 43 -56 51 0 26 35 43 95 45
33 1 61 4 63 6 9 9 139 -9 164 -21z m-422 -20 c0 -31 -54 -128 -95 -170 -61
-64 -105 -57 -105 17 0 31 7 44 46 81 26 23 62 58 80 76 29 27 37 31 54 22 11
-6 20 -18 20 -26z"/>
<path d="M8340 1433 c-33 -6 -88 -59 -95 -93 -10 -46 13 -83 91 -149 44 -36
164 -91 201 -91 17 0 34 -4 38 -10 3 -5 -6 -31 -19 -57 -33 -63 -41 -117 -27
-184 19 -87 76 -135 160 -133 50 0 111 22 111 40 0 6 11 21 24 33 51 48 57
156 14 248 -24 52 -15 69 41 78 72 12 82 16 121 51 45 41 57 81 41 140 -17 64
-43 84 -106 84 -29 0 -66 -6 -82 -14 -15 -8 -39 -19 -53 -25 -14 -6 -43 -22
-65 -36 -87 -53 -77 -53 -142 12 -91 91 -164 122 -253 106z m139 -100 c16 -16
41 -36 56 -46 33 -24 78 -95 71 -113 -6 -16 -67 -19 -82 -4 -6 6 -20 12 -32
15 -42 8 -117 52 -131 77 -13 23 -12 28 14 61 33 45 63 48 104 10z m491 -29
c6 -6 10 -29 8 -50 -3 -35 -8 -41 -48 -61 -56 -29 -199 -33 -221 -7 -23 28 -2
46 128 105 55 26 115 31 133 13z m-240 -224 c29 -29 70 -116 70 -149 0 -41
-34 -116 -61 -135 -32 -22 -73 -20 -114 7 -28 18 -35 29 -37 62 -4 53 15 128
41 161 12 15 21 33 21 41 0 12 30 30 53 32 4 1 16 -8 27 -19z"/>
</g>
</svg>
